<?xml version="1.0" standalone="no"?>
<!DOCTYPE svg PUBLIC "-//W3C//DTD SVG 20010904//EN"
 "http://www.w3.org/TR/2001/REC-SVG-20010904/DTD/svg10.dtd">
<svg version="1.0" xmlns="http://www.w3.org/2000/svg"
 width="351.000000pt" height="351.000000pt" viewBox="0 0 351.000000 351.000000"
 preserveAspectRatio="xMidYMid meet">
<metadata>
Created by potrace 1.14, written by Peter Selinger 2001-2017
</metadata>
<g transform="translate(0.000000,351.000000) scale(0.100000,-0.100000)"
fill="#000000" stroke="none">
<path d="M1640 3504 c-371 -29 -700 -154 -974 -368 -57 -45 -257 -243 -297
-295 -81 -106 -147 -216 -137 -229 8 -9 7 -11 -6 -6 -9 3 -16 2 -16 -2 1 -5
66 -49 145 -99 136 -84 145 -92 145 -121 0 -52 58 -84 92 -50 12 12 50 -9 251
-137 l237 -150 0 -63 c0 -96 11 -104 151 -104 l111 0 181 -115 c205 -130 231
-138 287 -87 61 54 50 138 -23 182 l-32 20 311 0 c288 0 312 1 327 18 25 27
25 392 1 416 -14 14 -86 16 -648 16 -716 0 -662 7 -668 -82 l-3 -47 -167 81
c-155 75 -167 83 -162 104 9 37 -14 93 -42 100 -35 9 -53 -2 -65 -36 -6 -16
-13 -30 -15 -30 -3 0 -24 10 -47 22 -32 17 -38 23 -23 26 10 2 22 -2 26 -8 4
-7 13 -11 20 -8 9 3 8 9 -4 21 -19 18 -61 23 -71 7 -5 -8 -41 2 -64 16 -7 5
110 172 171 244 210 247 531 423 883 484 117 21 352 21 468 1 359 -63 676
-244 901 -514 59 -70 140 -187 148 -213 4 -11 221 103 232 121 5 7 -84 144
-144 221 -56 72 -199 218 -270 274 -242 195 -532 323 -830 370 -100 15 -303
26 -380 20z m-922 -1087 l3 -48 -30 16 c-24 12 -31 22 -31 44 0 34 8 43 35 39
16 -2 21 -12 23 -51z m-155 -41 c22 -17 22 -36 -1 -36 -21 0 -42 18 -42 37 0
17 20 16 43 -1z m427 -149 c85 -41 268 -129 406 -194 138 -66 259 -125 270
-131 15 -9 -19 -11 -146 -12 l-166 0 -299 190 c-165 105 -301 195 -303 200 -2
5 2 18 8 29 13 25 1 29 230 -82z m1400 74 c6 -12 10 -93 10 -195 0 -163 -2
-178 -20 -196 -19 -19 -33 -20 -337 -20 l-318 1 -310 148 -310 148 -3 58 c-2
40 1 61 10 66 7 5 295 9 640 9 610 0 628 -1 638 -19z m-1161 -349 l86 -57 -87
-3 c-118 -4 -128 3 -128 79 0 70 -10 71 129 -19z m529 -91 c52 -27 76 -56 76
-95 0 -64 -57 -115 -112 -101 -21 5 -311 183 -336 206 -6 5 64 9 162 9 150 0
178 -3 210 -19z"/>
<path d="M1672 2223 c-24 -9 -42 -62 -42 -123 0 -51 4 -65 25 -85 51 -52 125
-18 125 55 0 64 -48 98 -101 70 -16 -9 -19 -7 -19 10 0 21 33 60 50 60 6 0 18
-9 27 -20 18 -21 43 -27 43 -10 0 34 -66 60 -108 43z m70 -117 c20 -30 -2 -96
-33 -96 -16 0 -49 40 -49 60 0 45 58 71 82 36z"/>
<path d="M1873 2200 c-18 -16 -33 -37 -33 -46 0 -15 2 -15 25 0 l25 16 0 -90
c0 -73 3 -90 15 -90 13 0 15 20 15 120 0 66 -3 120 -7 120 -5 0 -23 -14 -40
-30z"/>
<path d="M1510 2075 c0 -11 12 -15 50 -15 38 0 50 4 50 15 0 11 -12 15 -50 15
-38 0 -50 -4 -50 -15z"/>
<path d="M1707 3122 c-24 -26 -23 -113 1 -135 44 -40 92 -4 92 68 0 73 -53
111 -93 67z m63 -21 c26 -49 -1 -127 -37 -105 -22 13 -30 88 -12 110 16 20 36
18 49 -5z"/>
<path d="M992 2948 c-14 -14 -16 -38 -3 -38 5 0 11 7 15 15 3 8 15 15 26 15
28 0 26 -36 -2 -52 l-23 -12 25 -6 c18 -4 25 -13 25 -30 0 -30 -33 -40 -51
-15 -19 26 -37 14 -19 -13 20 -28 58 -29 85 -2 24 24 25 43 5 60 -11 9 -13 16
-5 24 14 14 13 32 -6 50 -18 19 -55 21 -72 4z"/>
<path d="M1127 2942 c-24 -26 -23 -113 1 -135 44 -40 92 -4 92 68 0 73 -53
111 -93 67z m63 -21 c26 -49 -1 -127 -37 -105 -22 13 -30 88 -12 110 16 20 36
18 49 -5z"/>
<path d="M2286 2944 c-9 -8 -16 -20 -16 -25 0 -15 18 -10 28 7 11 21 46 14 50
-9 3 -12 -4 -20 -17 -24 -26 -7 -28 -23 -2 -23 23 0 35 -28 20 -46 -15 -18
-45 -18 -53 1 -7 20 -26 19 -26 0 0 -21 43 -39 74 -31 28 7 43 44 31 73 -5 10
-7 28 -6 41 5 47 -49 70 -83 36z"/>
<path d="M2420 2945 c-17 -21 -23 -86 -11 -118 12 -32 31 -42 65 -33 46 11 58
112 19 151 -19 19 -57 19 -73 0z m65 -70 c0 -57 -1 -60 -25 -60 -23 0 -25 4
-28 49 -4 62 2 78 30 74 21 -3 23 -8 23 -63z"/>
<path d="M2756 2468 c-9 -12 -16 -41 -16 -63 0 -72 53 -111 94 -69 40 40 5
103 -50 90 -27 -7 -29 -3 -14 25 12 21 40 25 58 7 17 -17 28 -2 12 17 -19 23
-66 19 -84 -7z m69 -93 c0 -38 -37 -48 -55 -15 -14 27 4 52 34 48 16 -2 21
-10 21 -33z"/>
<path d="M2897 2472 c-24 -26 -23 -113 1 -135 44 -40 92 -4 92 68 0 73 -53
111 -93 67z m63 -21 c26 -49 -1 -127 -37 -105 -22 13 -30 88 -12 110 16 20 36
18 49 -5z"/>
<path d="M105 2353 c15 -16 102 -46 117 -41 7 3 -12 13 -42 23 -30 10 -62 20
-70 23 -10 3 -12 2 -5 -5z"/>
<path d="M3315 2335 c-33 -13 -52 -24 -43 -24 20 -1 98 27 113 41 15 14 -6 9
-70 -17z"/>
<path d="M20 2062 c0 -5 21 -13 48 -16 26 -4 55 -9 65 -12 9 -3 17 -1 17 4 0
5 -23 12 -50 16 -28 4 -57 9 -65 12 -8 4 -15 2 -15 -4z"/>
<path d="M3398 2057 c-32 -6 -58 -14 -58 -19 0 -5 8 -7 18 -4 9 3 38 8 65 12
26 3 47 10 47 15 0 5 -3 8 -7 8 -5 -1 -34 -6 -65 -12z"/>
<path d="M333 1814 c-15 -24 -15 -29 -2 -53 12 -21 22 -26 51 -25 30 1 35 -2
30 -18 -6 -26 -30 -34 -54 -19 -25 15 -35 7 -18 -14 13 -16 47 -20 66 -7 19
13 34 50 34 86 0 69 -72 103 -107 50z m72 -29 c0 -25 -4 -30 -25 -30 -16 0
-26 6 -28 18 -6 30 6 49 30 45 18 -2 23 -9 23 -33z"/>
<path d="M476 1818 c-9 -12 -16 -41 -16 -63 0 -73 53 -111 93 -67 24 26 23
113 -1 135 -26 23 -58 21 -76 -5z m63 -12 c18 -22 10 -97 -12 -110 -36 -22
-63 56 -37 105 13 23 33 25 49 5z"/>
<path d="M2923 1814 c-15 -24 -15 -29 -2 -53 12 -21 22 -26 51 -25 30 1 35 -2
30 -18 -6 -26 -30 -34 -54 -19 -25 15 -35 7 -18 -14 13 -16 47 -20 66 -7 19
13 34 50 34 86 0 69 -72 103 -107 50z m72 -29 c0 -25 -4 -30 -25 -30 -16 0
-26 6 -28 18 -6 30 6 49 30 45 18 -2 23 -9 23 -33z"/>
<path d="M3066 1818 c-9 -12 -16 -41 -16 -63 0 -73 53 -111 93 -67 24 26 23
113 -1 135 -26 23 -58 21 -76 -5z m63 -12 c18 -22 10 -97 -12 -110 -36 -22
-63 56 -37 105 13 23 33 25 49 5z"/>
<path d="M0 1755 c0 -13 21 -15 130 -15 109 0 130 2 130 15 0 13 -21 15 -130
15 -109 0 -130 -2 -130 -15z"/>
<path d="M3230 1755 c0 -13 22 -15 135 -15 113 0 135 2 135 15 0 13 -22 15
-135 15 -113 0 -135 -2 -135 -15z"/>
<path d="M1097 1612 c-24 -27 -25 -376 -1 -410 l15 -22 633 0 c600 0 634 1
649 18 25 27 25 392 1 416 -14 14 -86 16 -648 16 -600 0 -634 -1 -649 -18z
m1293 -11 c6 -12 10 -93 10 -195 0 -163 -2 -178 -20 -196 -20 -20 -33 -20
-631 -20 -401 0 -617 4 -630 10 -18 10 -19 23 -19 210 0 149 3 200 13 203 6 3
294 6 639 6 610 1 628 0 638 -18z"/>
<path d="M1493 1496 c-40 -39 -45 -66 -8 -42 13 9 27 16 30 16 3 0 5 -40 5
-90 0 -73 3 -90 15 -90 13 0 15 20 15 120 0 134 -3 139 -57 86z"/>
<path d="M1658 1518 c-36 -27 -49 -113 -27 -177 20 -56 79 -69 120 -25 33 35
35 138 3 181 -24 31 -69 42 -96 21z m84 -69 c15 -72 -16 -148 -55 -133 -40 15
-47 162 -9 183 25 14 55 -10 64 -50z"/>
<path d="M1929 1511 c-22 -17 -24 -27 -24 -101 0 -74 2 -84 24 -101 32 -26 67
-24 96 6 22 21 25 33 25 95 0 62 -3 74 -25 95 -29 30 -64 32 -96 6z m81 -32
c6 -10 10 -43 10 -73 0 -66 -26 -104 -59 -87 -25 14 -31 33 -31 97 0 40 5 59
20 74 22 22 45 18 60 -11z"/>
<path d="M1820 1305 c0 -8 9 -15 20 -15 11 0 20 7 20 15 0 8 -9 15 -20 15 -11
0 -20 -7 -20 -15z"/>
<path d="M71 1469 c-64 -12 -65 -22 -1 -14 56 7 105 25 65 24 -11 -1 -40 -5
-64 -10z"/>
<path d="M3350 1471 c8 -5 40 -12 70 -15 68 -8 37 8 -35 18 -32 4 -44 3 -35
-3z"/>
<path d="M158 1187 c-32 -11 -58 -24 -58 -29 0 -9 109 29 125 43 14 14 -4 10
-67 -14z"/>
<path d="M3270 1202 c0 -5 27 -18 60 -30 33 -11 60 -18 60 -14 0 5 -27 18 -60
30 -33 11 -60 18 -60 14z"/>
<path d="M532 1137 c-27 -29 -28 -41 -2 -27 19 10 20 8 20 -55 0 -37 4 -65 10
-65 6 0 10 35 10 85 0 47 -4 85 -8 85 -5 0 -18 -10 -30 -23z"/>
<path d="M642 1148 c-14 -14 -16 -38 -3 -38 5 0 12 7 15 16 9 22 50 14 54 -11
2 -13 -13 -36 -43 -65 -25 -24 -45 -48 -45 -52 0 -4 27 -8 60 -8 33 0 60 4 60
10 0 6 -19 10 -41 10 l-42 0 42 45 c46 50 47 52 25 83 -17 24 -62 30 -82 10z"/>
<path d="M780 1145 c-17 -21 -23 -86 -11 -118 12 -32 31 -42 65 -33 46 11 58
112 19 151 -19 19 -57 19 -73 0z m65 -70 c0 -57 -1 -60 -25 -60 -23 0 -25 4
-28 49 -4 62 2 78 30 74 21 -3 23 -8 23 -63z"/>
<path d="M2658 1139 c-32 -24 -38 -45 -8 -29 19 10 20 8 20 -55 0 -37 4 -65
10 -65 6 0 10 35 10 85 0 47 -1 85 -2 85 -2 0 -15 -10 -30 -21z"/>
<path d="M2766 1144 c-9 -8 -16 -20 -16 -25 0 -15 20 -10 26 6 8 20 50 19 58
-1 4 -11 -10 -34 -44 -70 -27 -29 -50 -55 -50 -58 0 -3 27 -6 60 -6 33 0 60 4
60 10 0 6 -19 10 -42 10 l-42 0 42 43 c23 23 42 50 42 59 0 24 -28 48 -55 48
-13 0 -31 -7 -39 -16z"/>
<path d="M2913 1154 c-23 -10 -35 -69 -23 -113 11 -42 41 -61 75 -47 35 13 45
115 15 151 -12 15 -43 18 -67 9z m52 -79 c0 -51 -3 -60 -19 -63 -24 -5 -36 14
-36 60 0 52 9 70 34 66 19 -3 21 -9 21 -63z"/>
<path d="M1640 1050 c0 -47 4 -80 10 -80 6 0 10 11 10 24 0 37 17 40 36 6 10
-16 24 -30 32 -30 8 0 4 12 -12 37 l-26 37 22 23 c18 19 19 23 5 23 -9 0 -21
-9 -27 -20 -17 -32 -30 -23 -30 20 0 22 -4 40 -10 40 -6 0 -10 -33 -10 -80z"/>
<path d="M1750 1028 c0 -32 4 -58 10 -58 6 0 10 12 10 28 0 51 11 73 34 70 17
-2 22 -11 24 -50 4 -63 22 -62 22 1 0 57 -12 70 -62 68 l-38 -1 0 -58z"/>
<path d="M328 957 c-79 -46 -105 -66 -99 -76 7 -10 33 1 116 50 101 60 135 89
103 89 -7 0 -61 -28 -120 -63z"/>
<path d="M3032 1008 c3 -7 53 -42 112 -76 77 -46 111 -61 119 -53 13 13 22 6
-104 80 -106 61 -134 72 -127 49z"/>
<path d="M445 675 c-27 -25 -45 -45 -40 -45 6 0 33 20 60 45 28 24 46 44 40
44 -5 0 -32 -20 -60 -44z"/>
<path d="M3025 675 c28 -25 55 -45 60 -44 6 0 -12 20 -40 44 -27 25 -54 45
-60 44 -5 0 13 -20 40 -44z"/>
<path d="M975 685 c-32 -26 -29 -43 4 -25 20 10 21 8 21 -55 0 -37 4 -65 10
-65 6 0 10 35 10 85 0 47 -3 85 -7 85 -5 -1 -21 -12 -38 -25z"/>
<path d="M1086 669 c-7 -46 -2 -59 16 -41 32 32 80 -8 58 -48 -13 -24 -46 -26
-58 -4 -5 9 -14 15 -21 13 -8 -3 -7 -11 4 -27 33 -46 105 -16 105 44 0 28 -34
58 -60 51 -15 -4 -20 0 -20 14 0 15 7 19 35 19 19 0 35 5 35 10 0 6 -20 10
-44 10 -43 0 -43 0 -50 -41z"/>
<path d="M1226 688 c-9 -12 -16 -41 -16 -63 0 -73 53 -111 93 -67 24 26 23
113 -1 135 -26 23 -58 21 -76 -5z m63 -12 c18 -22 10 -97 -12 -110 -36 -22
-63 56 -37 105 13 23 33 25 49 5z"/>
<path d="M2208 689 c-32 -24 -38 -45 -8 -29 19 10 20 8 20 -55 0 -37 4 -65 10
-65 6 0 10 35 10 85 0 47 -1 85 -2 85 -2 0 -15 -10 -30 -21z"/>
<path d="M2315 683 c-4 -16 -8 -36 -10 -45 -4 -21 8 -23 34 -6 28 17 53 3 49
-28 -4 -38 -31 -53 -56 -31 -21 19 -32 22 -32 8 0 -18 31 -41 55 -41 33 0 55
26 55 65 0 38 -27 61 -62 52 -14 -4 -18 -1 -16 11 2 12 15 18 41 20 52 4 46
22 -8 22 -41 0 -45 -2 -50 -27z"/>
<path d="M2463 704 c-23 -10 -35 -69 -23 -113 11 -42 41 -61 75 -47 35 13 45
115 15 151 -12 15 -43 18 -67 9z m52 -79 c0 -51 -3 -60 -19 -63 -24 -5 -36 14
-36 60 0 52 9 70 34 66 19 -3 21 -9 21 -63z"/>
<path d="M1592 527 c-27 -29 -28 -41 -2 -27 19 10 20 8 20 -55 0 -37 4 -65 10
-65 6 0 10 35 10 85 0 47 -4 85 -8 85 -5 0 -18 -10 -30 -23z"/>
<path d="M1706 528 c-11 -15 -12 -26 -5 -39 6 -11 6 -20 -1 -24 -5 -3 -10 -20
-10 -36 0 -22 7 -32 25 -41 53 -24 109 26 75 67 -8 10 -8 19 -1 33 14 26 -12
62 -44 62 -13 0 -31 -10 -39 -22z m62 -21 c4 -20 -25 -34 -40 -19 -15 15 -1
44 19 40 10 -2 19 -11 21 -21z m7 -77 c0 -20 -6 -26 -28 -28 -29 -4 -44 16
-33 44 4 10 15 14 33 12 22 -2 28 -8 28 -28z"/>
<path d="M1840 535 c-17 -21 -23 -86 -11 -118 12 -32 31 -42 65 -33 46 11 58
112 19 151 -19 19 -57 19 -73 0z m65 -70 c0 -57 -1 -60 -25 -60 -23 0 -25 4
-28 49 -4 62 2 78 30 74 21 -3 23 -8 23 -63z"/>
<path d="M660 475 c-19 -25 -37 -51 -38 -58 -4 -14 63 59 78 86 20 33 -5 16
-40 -28z"/>
<path d="M2799 493 c36 -48 73 -88 69 -76 -5 18 -71 102 -81 103 -5 0 1 -12
12 -27z"/>
<path d="M922 361 c-34 -60 -62 -111 -62 -115 0 -3 6 -6 14 -6 12 0 136 200
136 221 0 5 -6 9 -13 9 -7 0 -41 -49 -75 -109z"/>
<path d="M2480 463 c0 -19 125 -223 137 -223 7 0 13 3 13 7 0 19 -125 223
-137 223 -7 0 -13 -3 -13 -7z"/>
<path d="M1732 138 c2 -94 7 -133 16 -136 9 -3 12 28 12 132 0 115 -2 136 -15
136 -13 0 -15 -19 -13 -132z"/>
<path d="M1166 188 c-9 -29 -20 -59 -23 -65 -2 -7 -1 -13 4 -13 5 0 17 24 27
53 9 28 20 58 23 65 2 6 1 12 -4 12 -5 0 -17 -24 -27 -52z"/>
<path d="M2311 183 c12 -32 26 -62 32 -68 7 -7 8 -5 5 5 -31 90 -44 120 -50
120 -4 0 2 -26 13 -57z"/>
<path d="M1457 153 c-7 -11 -21 -129 -14 -123 7 7 28 122 23 127 -2 3 -6 1 -9
-4z"/>
<path d="M2020 155 c1 -6 7 -37 15 -70 l15 -60 -6 60 c-2 33 -9 64 -14 69 -6
6 -10 6 -10 1z"/>
</g>
</svg>
